<svg width="36" height="26" viewBox="0 0 36 26" fill="none" xmlns="http://www.w3.org/2000/svg">
<path d="M0 22C0 24.209 1.791 26 4 26H32C34.209 26 36 24.209 36 22V18H0V22Z" fill="#138808"/>
<path d="M0 8H36V18H0V8Z" fill="#EEEEEE"/>
<path d="M36 8V4C36 1.791 34.209 0 32 0H4C1.791 0 0 1.791 0 4V8H36Z" fill="#FF9933"/>
<path d="M18 17C20.2091 17 22 15.2091 22 13C22 10.7909 20.2091 9 18 9C15.7909 9 14 10.7909 14 13C14 15.2091 15.7909 17 18 17Z" fill="#000080"/>
<path d="M18 16C19.6569 16 21 14.6569 21 13C21 11.3431 19.6569 10 18 10C16.3431 10 15 11.3431 15 13C15 14.6569 16.3431 16 18 16Z" fill="#EEEEEE"/>
<path d="M18 10L18.146 12.264L19.147 10.229L18.417 12.376L20.121 10.878L18.624 12.583L20.771 11.852L18.736 12.854L21 13L18.736 13.146L20.771 14.147L18.624 13.417L20.121 15.121L18.417 13.624L19.147 15.771L18.146 13.736L18 16L17.854 13.736L16.852 15.771L17.583 13.624L15.878 15.121L17.376 13.417L15.229 14.147L17.264 13.146L15 13L17.264 12.854L15.229 11.852L17.376 12.583L15.878 10.878L17.583 12.376L16.852 10.229L17.854 12.264L18 10Z" fill="#6666B3"/>
<path d="M18 14C18.5523 14 19 13.5523 19 13C19 12.4477 18.5523 12 18 12C17.4477 12 17 12.4477 17 13C17 13.5523 17.4477 14 18 14Z" fill="#000080"/>
</svg>
