<svg width="36" height="36" viewBox="0 0 36 36" fill="none" xmlns="http://www.w3.org/2000/svg">
<path d="M4.861 9.10499C5.801 8.44799 7.218 8.57399 8.062 9.27099L7.094 7.86399C6.315 6.75299 6.594 5.55099 7.706 4.77099C8.818 3.99399 11.969 6.08299 11.969 6.08299C11.183 4.96099 11.33 3.53899 12.452 2.75199C13.574 1.96799 15.122 2.23899 15.908 3.36299L26.328 18.083L25 30.958L13.917 26.916L4.25 12.583C3.457 11.454 3.731 9.89699 4.861 9.10499Z" fill="#EF9645"/>
<path d="M2.69503 17.294C2.69503 17.294 1.56303 15.644 3.21403 14.513C4.86303 13.382 5.99403 15.031 5.99403 15.031L11.245 22.689C11.426 22.387 11.624 22.089 11.845 21.795L4.55703 11.168C4.55703 11.168 3.42603 9.519 5.07603 8.388C6.72503 7.257 7.85603 8.906 7.85603 8.906L14.711 18.903C14.966 18.695 15.227 18.486 15.496 18.281L7.54903 6.69C7.54903 6.69 6.41803 5.041 8.06803 3.91C9.71703 2.779 10.848 4.428 10.848 4.428L18.795 16.017C19.087 15.838 19.376 15.683 19.666 15.519L12.238 4.687C12.238 4.687 11.107 3.038 12.756 1.907C14.405 0.775997 15.536 2.425 15.536 2.425L23.39 13.879L24.584 15.621C19.636 19.015 19.165 25.4 21.992 29.523C22.557 30.348 23.382 29.783 23.382 29.783C19.989 24.834 21.025 19.273 25.974 15.88L24.515 8.578C24.515 8.578 23.97 6.654 25.893 6.108C27.817 5.563 28.363 7.487 28.363 7.487L30.048 12.491C30.716 14.475 31.427 16.452 32.368 18.322C35.025 23.602 33.438 30.164 28.428 33.601C22.963 37.348 15.492 35.955 11.744 30.491L2.69503 17.294Z" fill="#FFDC5D"/>
<path d="M12 32C8.00001 32 3.95801 27.958 3.95801 23.958C3.95801 23.405 3.55301 22.958 3.00001 22.958C2.44701 22.958 1.95801 23.405 1.95801 23.958C1.95801 29.958 6.00001 34 12 34C12.553 34 13 33.511 13 32.958C13 32.405 12.553 32 12 32Z" fill="#5DADEC"/>
<path d="M7 33.958C4 33.958 2 31.958 2 28.958C2 28.405 1.553 27.958 1 27.958C0.447 27.958 0 28.405 0 28.958C0 32.958 3 35.958 7 35.958C7.553 35.958 8 35.511 8 34.958C8 34.405 7.553 33.958 7 33.958ZM24 1.95801C23.448 1.95801 23 2.40601 23 2.95801C23 3.51001 23.448 3.95801 24 3.95801C28 3.95801 32 7.54701 32 11.958C32 12.51 32.448 12.958 33 12.958C33.552 12.958 34 12.51 34 11.958C34 6.44401 30 1.95801 24 1.95801Z" fill="#5DADEC"/>
<path d="M29 0C28.448 0 28 0.406 28 0.958C28 1.51 28.448 2 29 2C32 2 33.958 4.225 33.958 6.958C33.958 7.51 34.447 7.958 35 7.958C35.553 7.958 35.958 7.51 35.958 6.958C35.958 3.121 33 0 29 0Z" fill="#5DADEC"/>
</svg>
