<svg width="36" height="26" viewBox="0 0 36 26" fill="none" xmlns="http://www.w3.org/2000/svg">
<path d="M36 22C36 24.209 34.209 26 32 26H4C1.791 26 0 24.209 0 22V4C0 1.791 1.791 0 4 0H32C34.209 0 36 1.791 36 4V22Z" fill="#CCD6DD"/>
<path d="M11.95 12.636L0.637026 23.949C0.610026 23.977 0.600026 24.012 0.577026 24.04C0.917026 24.61 1.39103 25.083 1.96103 25.424C1.99003 25.401 2.02403 25.391 2.05103 25.364L13.365 14.05C13.755 13.659 13.755 13.027 13.365 12.636C12.973 12.245 12.341 12.245 11.95 12.636ZM35.423 24.04C35.402 24.012 35.39 23.977 35.363 23.95L24.051 12.636C23.659 12.245 23.027 12.245 22.636 12.636C22.245 13.028 22.245 13.66 22.636 14.05L33.949 25.364C33.975 25.39 34.011 25.401 34.039 25.424C34.61 25.084 35.083 24.61 35.423 24.04Z" fill="#99AAB5"/>
<path d="M32 0H4C1.791 0 0 1.791 0 4V5.03L14.528 19.526C16.422 21.419 19.516 21.419 21.412 19.526L36 5.009V4C36 1.791 34.209 0 32 0Z" fill="#99AAB5"/>
<path d="M32 0H4.00003C2.41203 0 1.05103 0.934 0.405029 2.275L15.171 17.042C16.733 18.604 19.267 18.604 20.828 17.042L35.595 2.275C34.949 0.934 33.589 0 32 0Z" fill="#E1E8ED"/>
</svg>
