<svg width="38" height="28" viewBox="0 0 38 28" fill="none" xmlns="http://www.w3.org/2000/svg">
<path d="M37.0031 7.5C37.0031 4.462 33.9195 0 18.5015 0C3.08359 0 0 4.462 0 7.5C0 7.545 0.0195294 7.576 0.022613 7.619C0.0102786 7.815 0 8.021 0 8.25C0 10.873 2.30139 12 5.13932 12C7.97725 12 10.2786 10.873 10.2786 8.25C10.2786 8.032 10.2571 7.838 10.2262 7.653C12.7188 7.302 15.5228 7 18.5015 7C21.4803 7 24.2843 7.302 26.7769 7.653C26.746 7.838 26.7245 8.032 26.7245 8.25C26.7245 10.873 29.0248 12 31.8638 12C34.7027 12 37.0031 10.873 37.0031 8.25C37.0031 8.025 36.9939 7.821 36.9784 7.629C36.9825 7.583 37.0031 7.549 37.0031 7.5Z" fill="#BE1931"/>
<path d="M35.9074 19C35.412 17.969 33.533 14.81 31.8288 11.993C30.2274 9.346 27.7523 7 25.6966 7V5C25.6966 3.896 24.7756 3 23.6409 3C22.5061 3 21.5851 3.896 21.5851 5V7H15.418V5C15.418 3.896 14.497 3 13.3622 3C12.2275 3 11.3065 3.896 11.3065 5V7C9.25077 7 6.77362 9.351 5.17016 12C3.46698 14.815 1.59011 17.97 1.0957 19C0.501598 20.239 0 21 0 23C0 25 1.8409 28 4.11146 28H32.8916C35.1622 28 37.0031 25 37.0031 23C37.0031 21 36.5426 20.324 35.9074 19Z" fill="#DD2E44"/>
<path d="M20.6046 10.818C20.6046 11.27 19.6631 11.636 18.5016 11.636C17.3401 11.636 16.3996 11.27 16.3996 10.818C16.3996 10.366 17.3401 10 18.5016 10C19.6631 10 20.6046 10.366 20.6046 10.818ZM15.5578 10.818C15.5578 11.27 14.6173 11.636 13.4558 11.636C12.2943 11.636 11.3538 11.27 11.3538 10.818C11.3538 10.366 12.2953 10 13.4558 10C14.6162 10 15.5578 10.366 15.5578 10.818ZM25.6493 10.818C25.6493 11.27 24.7088 11.636 23.5474 11.636C22.3859 11.636 21.4443 11.27 21.4443 10.818C21.4443 10.366 22.3859 10 23.5474 10C24.7088 10 25.6493 10.366 25.6493 10.818ZM21.024 13.682C21.024 14.361 19.8943 14.91 18.5016 14.91C17.1088 14.91 15.9782 14.361 15.9782 13.682C15.9782 13.005 17.1078 12.455 18.5016 12.455C19.8954 12.455 21.024 13.004 21.024 13.682ZM26.9116 13.682C26.9116 14.361 25.7809 14.91 24.3892 14.91C22.9964 14.91 21.8658 14.361 21.8658 13.682C21.8658 13.005 22.9964 12.455 24.3892 12.455C25.7809 12.455 26.9116 13.004 26.9116 13.682ZM15.1374 13.682C15.1374 14.361 14.0078 14.91 12.615 14.91C11.2222 14.91 10.0916 14.361 10.0916 13.682C10.0916 13.005 11.2212 12.455 12.615 12.455C14.0078 12.455 15.1374 13.004 15.1374 13.682ZM21.8647 17.363C21.8647 18.269 20.3589 19 18.5016 19C16.6442 19 15.1374 18.269 15.1374 17.363C15.1374 16.46 16.6442 15.727 18.5016 15.727C20.3589 15.728 21.8647 16.46 21.8647 17.363ZM29.435 17.363C29.435 18.268 27.9271 19 26.0708 19C24.2134 19 22.7066 18.269 22.7066 17.363C22.7066 16.46 24.2134 15.727 26.0708 15.727C27.9271 15.728 29.435 16.46 29.435 17.363ZM14.2966 17.363C14.2966 18.268 12.7897 19 10.9324 19C9.07503 19 7.56921 18.269 7.56921 17.363C7.56921 16.46 9.07503 15.727 10.9324 15.727C12.7897 15.728 14.2966 16.46 14.2966 17.363Z" fill="white"/>
</svg>
